<?xml version="1.0" encoding="UTF-8" standalone="no"?>
<!-- Created with Inkscape (http://www.inkscape.org/) -->
<svg xmlns:rdf="http://www.w3.org/1999/02/22-rdf-syntax-ns#" xmlns="http://www.w3.org/2000/svg" height="35" width="35" version="1.1" xmlns:cc="http://creativecommons.org/ns#" xmlns:dc="http://purl.org/dc/elements/1.1/">
 <defs>
  <radialGradient id="radialGradient4342" gradientUnits="userSpaceOnUse" cy="493.46" cx="497.75" gradientTransform="matrix(1,0,0,0.95348837,0,22.95172)" r="28.274">
   <stop stop-color="#FFF" stop-opacity="0.08474576" offset="0"/>
   <stop stop-color="#FFF" stop-opacity="0.49803922" offset="0.625"/>
   <stop stop-color="#FFF" stop-opacity="0" offset="1"/>
  </radialGradient>
  <linearGradient id="linearGradient4344" x1="390.33" gradientUnits="userSpaceOnUse" y1="494.8" gradientTransform="translate(0,-1.2217828)" x2="448.1" y2="494.8">
   <stop stop-color="#7e7b7b" offset="0"/>
   <stop stop-color="#d4d4d4" offset="1"/>
  </linearGradient>
 </defs>
 <metadata>
  <rdf:RDF>
   <cc:Work rdf:about="">
    <dc:format>image/svg+xml</dc:format>
    <dc:type rdf:resource="http://purl.org/dc/dcmitype/StillImage"/>
    <dc:title/>
   </cc:Work>
  </rdf:RDF>
 </metadata>
 <g transform="matrix(0.71505968,0,0,0.71505968,0.07547892,-717.92521)">
  <g transform="matrix(0.60875669,0,0,0.60875669,-231.34068,726.95446)">
   <path opacity="0.65517243" d="m526.02,493.46c0,14.889-12.659,26.959-28.274,26.959s-28.274-12.07-28.274-26.959,12.659-26.959,28.274-26.959,28.274,12.07,28.274,26.959z" fill-rule="evenodd" transform="matrix(1.3405045,-0.44299997,0.38453162,1.1429497,-437.2216,151.11045)" fill="url(#radialGradient4342)"/>
   <path fill="#2b2b2b" d="m422.91,477.59c3.6437,0.50608,2.6316,4.6559,1.9231,6.2753-0.70851,1.6194-2.0243,5.1619,3.0364,5.668,5.0607,0.50608,5.162-3.2389,5.2632-3.9474,0.10122-0.70851-0.50607-7.1862,3.9474-7.4899,4.4534-0.30365,11.64,5.668,11.134,11.842-0.50607,6.1741-6.7814,16.599-14.777,21.356-7.996,4.7571-15.081,7.5911-25,6.6802-9.919-0.91093-15.688-6.7814-17.206-10.324-1.5182-3.5425-0.7085-8.9069,1.8219-12.348,2.5304-3.4413,9.6154-9.6154,14.17-12.045,4.5547-2.4292,10.83-5.9717,15.688-5.668z"/>
   <path fill="url(#linearGradient4344)" d="m422.77,473.31c3.6437,0.50608,2.6316,4.6559,1.9231,6.2753-0.70851,1.6194-2.0243,5.1619,3.0364,5.668,5.0607,0.50608,5.162-3.2389,5.2632-3.9474,0.10122-0.70851-0.50607-7.1862,3.9474-7.4899,4.4534-0.30365,11.64,5.668,11.134,11.842-0.50607,6.1741-6.7814,16.599-14.777,21.356-7.996,4.7571-15.081,7.5911-25,6.6802-9.919-0.91093-15.688-6.7814-17.206-10.324-1.5182-3.5425-0.7085-8.9069,1.8219-12.348,2.5304-3.4413,9.6154-9.6154,14.17-12.045,4.5547-2.4292,10.83-5.9717,15.688-5.668z"/>
   <path fill="#279a50" d="m401.69,497.42c3.9599-1.3817,8.092-0.78956,8.2642,2.3686,0.17216,3.1582-4.6486,7.1059-7.7477,6.9085-3.099-0.19738-7.059-3.553-0.5165-9.2772z"/>
   <path fill="#ffe345" d="m404.1,495.2c6.5128,0.0599,8.1682-1.877,7.8594-3.9912-0.30879-2.1142-6.7047-4.652-10.519-2.7842-3.8141,1.8678-3.7899,5.7912,2.6594,6.7754z"/>
   <path fill="#dd2830" d="m409.4,486.86c3.6677,4.414,11.481,0.32696,12.279-1.7983,0.79732-2.1252-3.8272-6.7026-6.857-5.3948s-6.3786,2.4522-5.4218,7.1931z"/>
   <path fill="#081681" d="m423.47,499.91c2.5962,4.7048-6.8723,10.472-6.8723,10.472s-3.8179,0.91059-5.4978-3.7942,3.3598-7.1331,6.7195-7.2848c3.3598-0.15176,5.6505,0.60707,5.6505,0.60707z"/>
   <path fill="#ae499d" d="m431.35,501.99c5.812-2.261,9.0239-5.6524,7.9533-9.3669s-9.9416-1.4535-11.471,0c-1.5295,1.4535-4.8943,4.6835-1.9883,7.4289,2.906,2.7455,5.5061,1.938,5.5061,1.938z"/>
  </g>
 </g>
</svg>
