<?xml version="1.0" encoding="UTF-8" standalone="no"?>
<!-- Created with Inkscape (http://www.inkscape.org/) -->
<svg xmlns:rdf="http://www.w3.org/1999/02/22-rdf-syntax-ns#" xmlns="http://www.w3.org/2000/svg" height="25" width="25" version="1.1" xmlns:cc="http://creativecommons.org/ns#" xmlns:dc="http://purl.org/dc/elements/1.1/">
 <metadata>
  <rdf:RDF>
   <cc:Work rdf:about="">
    <dc:format>image/svg+xml</dc:format>
    <dc:type rdf:resource="http://purl.org/dc/dcmitype/StillImage"/>
    <dc:title/>
   </cc:Work>
  </rdf:RDF>
 </metadata>
 <g stroke-dasharray="none" stroke-miterlimit="4" transform="matrix(0.50896609,0,0,0.50896609,0.26415169,-510.22681)">
  <path stroke-linejoin="miter" d="m15.596,1020.1c0.75015-1.2425,4.5763-8.832,14.737-8.832,9.3115,0,15.589,8.1614,15.589,15.939,0,8.3104-6.5537,16.114-16.014,16.114-9.4608,0-13.329-6.7775-14.316-8.8557" stroke="#404040" stroke-linecap="butt" stroke-width="4" fill="none"/>
  <path stroke-linejoin="miter" d="m15.596,1020.1c0.75015-1.2425,4.5763-8.832,14.737-8.832,9.3115,0,15.589,8.1614,15.589,15.939,0,8.3104-6.5537,16.114-16.014,16.114-9.4608,0-13.329-6.7775-14.316-8.8557" stroke="#FFF" stroke-linecap="butt" stroke-width="3.11414075" fill="none"/>
  <path d="m0.73795,1023.5,0,7.7996,24.447-0.1013,0,7.0407,13.897-10.832-13.869-10.972,0,7.2961z" stroke="#404040" stroke-width="0.40000001" fill="#FFF"/>
 </g>
</svg>
