<?xml version="1.0" encoding="UTF-8" standalone="no"?>
<!-- Created with Inkscape (http://www.inkscape.org/) -->
<svg xmlns:rdf="http://www.w3.org/1999/02/22-rdf-syntax-ns#" xmlns="http://www.w3.org/2000/svg" height="32" width="32" version="1.1" xmlns:cc="http://creativecommons.org/ns#" xmlns:dc="http://purl.org/dc/elements/1.1/">
 <defs>
  <radialGradient id="radialGradient4338" gradientUnits="userSpaceOnUse" cy="493.46" cx="497.75" gradientTransform="matrix(1,0,0,0.95348837,0,22.95172)" r="28.274">
   <stop stop-color="#FFF" stop-opacity="0.08474576" offset="0"/>
   <stop stop-color="#FFF" stop-opacity="0.49803922" offset="0.625"/>
   <stop stop-color="#FFF" stop-opacity="0" offset="1"/>
  </radialGradient>
  <radialGradient id="radialGradient4340" gradientUnits="userSpaceOnUse" cy="496.41" cx="495.29" gradientTransform="matrix(1,0,0,1.0087463,0,-4.341734)" r="24.385">
   <stop stop-color="#FFF" offset="0"/>
   <stop stop-color="#5c5c5c" offset="0.66667"/>
   <stop stop-color="#CCC" offset="1"/>
  </radialGradient>
 </defs>
 <metadata>
  <rdf:RDF>
   <cc:Work rdf:about="">
    <dc:format>image/svg+xml</dc:format>
    <dc:type rdf:resource="http://purl.org/dc/dcmitype/StillImage"/>
    <dc:title/>
   </cc:Work>
  </rdf:RDF>
 </metadata>
 <g transform="matrix(0.66673586,0,0,0.66673586,0.29774959,-669.7024)">
  <g transform="matrix(0.70741379,0,0,0.70741379,-326.30206,677.31932)">
   <path opacity="0.65517243" d="m526.02,493.46c0,14.889-12.659,26.959-28.274,26.959s-28.274-12.07-28.274-26.959,12.659-26.959,28.274-26.959,28.274,12.07,28.274,26.959z" fill-rule="evenodd" transform="matrix(1.1543563,0,0,1.2429898,-79.414472,-116.94733)" fill="url(#radialGradient4338)"/>
   <path fill="url(#radialGradient4340)" d="m485.12,473.8,5.4032-1.9906,2.4172,3.8391,4.9766,0.14218,2.275-3.6969,5.5453,1.8484-0.28438,4.4078,3.5547,3.1282,4.2656-1.8484,3.5547,4.2656-2.8438,3.5547,0.43716,1.7247-9.14,4.4386s-0.96393-7.0775-9.6902-7.3179c-5.9027-0.16262-10.494,5.247-10.577,10.095-0.086,5.0017,3.614,10.665,10.443,10.457,9.3918-0.28602,11.439-9.5301,9.6722-13.581-1.3656-3.1311,9.1531-4.6085,9.1531-4.6085l0.83935,3.9101,4.4078,0.99532,0.14219,5.9719-4.4078,0.99532-1.4219,4.55,2.7016,3.2703-2.986,4.9766-4.4078-1.5641-3.8391,2.7016,0.28437,4.4078-5.6875,1.8484-2.4172-3.8391-4.55,0.14219-2.5594,3.9813-5.5454-1.9906,0.71095-4.4078-3.9813-2.986-3.8391,1.7063-3.6969-4.55,3.1281-3.6969-1.5641-4.4078-4.6922-1.4219,0.14219-5.9719,4.4078-1.1375,1.4219-4.1235-2.5594-3.6969,3.4125-4.8344,4.1235,1.7063,3.8391-2.5594z"/>
   <path stroke-linejoin="miter" d="m485,473.8,5.4032-1.9906,2.4172,3.8391,4.9766,0.14218,2.275-3.6969,5.5453,1.8484-0.28438,4.4078,3.5547,3.1282,4.2656-1.8484,3.5547,4.2656-2.8438,3.5547,1.1375,5.1188,4.4078,0.99532,0.14219,5.9719-4.4078,0.99532-1.4219,4.55,2.7016,3.2703-2.986,4.9766-4.4078-1.5641-3.8391,2.7016,0.28437,4.4078-5.6875,1.8484-2.4172-3.8391-4.55,0.14219-2.5594,3.9813-5.5454-1.9906,0.71095-4.4078-3.9813-2.986-3.8391,1.7063-3.6969-4.55,3.1281-3.6969-1.5641-4.4078-4.6922-1.4219,0.14219-5.9719,4.4078-1.1375,1.4219-4.1235-2.5594-3.6969,3.4125-4.8344,4.1235,1.7063,3.8391-2.5594z" stroke="#434343" stroke-linecap="butt" stroke-miterlimit="4" stroke-dasharray="none" stroke-width="2" fill="none"/>
   <path d="m505.76,493.92c0,5.6933-4.6153,10.309-10.309,10.309-5.6933,0-10.309-4.6154-10.309-10.309,0-5.6933,4.6153-10.309,10.309-10.309,5.6933,0,10.309,4.6154,10.309,10.309z" transform="translate(0,2.7015787)" stroke="#333" stroke-miterlimit="4" stroke-dasharray="none" stroke-width="2" fill="none"/>
  </g>
 </g>
</svg>
