<?xml version="1.0" encoding="UTF-8" standalone="no"?>
<!-- Created with Inkscape (http://www.inkscape.org/) -->
<svg xmlns:rdf="http://www.w3.org/1999/02/22-rdf-syntax-ns#" xmlns="http://www.w3.org/2000/svg" height="35" width="35" version="1.1" xmlns:cc="http://creativecommons.org/ns#" xmlns:xlink="http://www.w3.org/1999/xlink" xmlns:dc="http://purl.org/dc/elements/1.1/">
 <defs>
  <linearGradient id="linearGradient4175">
   <stop stop-color="#000" offset="0"/>
   <stop stop-color="#000" stop-opacity="0.65254235" offset="0.60417"/>
   <stop stop-color="#000" stop-opacity="0" offset="1"/>
  </linearGradient>
  <radialGradient id="radialGradient4304" gradientUnits="userSpaceOnUse" cy="502.3" cx="559.16" gradientTransform="matrix(1,0,0,0.9807693,0,9.6595887)" r="35.396">
   <stop stop-color="#FFF" offset="0"/>
   <stop stop-color="#FFF" stop-opacity="0" offset="1"/>
  </radialGradient>
  <radialGradient id="radialGradient4306" xlink:href="#linearGradient4175" gradientUnits="userSpaceOnUse" cy="518.82" cx="559.28" gradientTransform="matrix(1,0,0,0.33173077,0,346.71316)" r="25.743"/>
  <linearGradient id="linearGradient4308" x1="535.02" gradientUnits="userSpaceOnUse" y1="503.48" gradientTransform="translate(-0.61538446,-0.46153842)" x2="583.42" y2="503.48">
   <stop stop-color="#c4c4c4" offset="0"/>
   <stop stop-color="#444" offset="0.5"/>
   <stop stop-color="#a3a3a3" offset="1"/>
  </linearGradient>
  <radialGradient id="radialGradient4310" gradientUnits="userSpaceOnUse" cy="480.77" cx="558.04" gradientTransform="matrix(1,0,0,0.46551723,0,256.96096)" r="25.124">
   <stop stop-color="#515151" offset="0"/>
   <stop stop-color="#cfcfcf" offset="0.6875"/>
   <stop stop-color="#363636" offset="1"/>
  </radialGradient>
  <linearGradient id="linearGradient4312" x1="543.75" xlink:href="#linearGradient4175" gradientUnits="userSpaceOnUse" x2="548.39" y1="510.01" y2="510.01"/>
  <linearGradient id="linearGradient4314" x1="551.92" xlink:href="#linearGradient4175" gradientUnits="userSpaceOnUse" x2="556.93" y1="512.63" y2="512.63"/>
  <linearGradient id="linearGradient4316" x1="560.64" xlink:href="#linearGradient4175" gradientUnits="userSpaceOnUse" x2="565.84" y1="512.67" y2="512.67"/>
  <linearGradient id="linearGradient4318" x1="569.28" xlink:href="#linearGradient4175" gradientUnits="userSpaceOnUse" x2="573.76" y1="509.67" y2="509.67"/>
  <radialGradient id="radialGradient4320" gradientUnits="userSpaceOnUse" cy="476.46" cx="559.9" gradientTransform="matrix(1,0,0,0.56117278,0,209.47185)" r="11.02">
   <stop stop-color="#c4c4c4" offset="0"/>
   <stop stop-color="#393939" offset="1"/>
  </radialGradient>
 </defs>
 <metadata>
  <rdf:RDF>
   <cc:Work rdf:about="">
    <dc:format>image/svg+xml</dc:format>
    <dc:type rdf:resource="http://purl.org/dc/dcmitype/StillImage"/>
    <dc:title/>
   </cc:Work>
  </rdf:RDF>
 </metadata>
 <g transform="matrix(0.72593633,0,0,0.72593633,0.5423809,-729.03211)">
  <g transform="matrix(0.61378695,0,0,0.61378695,-319.03707,723.44637)">
   <path d="m594.55,502.3c0,19.173-15.847,34.715-35.396,34.715s-35.396-15.543-35.396-34.715c0-19.173,15.847-34.715,35.396-34.715s35.396,15.543,35.396,34.715z" fill-rule="evenodd" transform="matrix(1,0,0,1.1068618,-0.74899425,-59.02221)" fill="url(#radialGradient4304)"/>
   <path d="m585.02,518.82c0,4.7163-11.525,8.5396-25.743,8.5396-14.217,0-25.743-3.8233-25.743-8.5396s11.525-8.5396,25.743-8.5396c14.217,0,25.743,3.8233,25.743,8.5396z" fill-rule="evenodd" transform="matrix(1.1499378,0,0,1.3251777,-84.250325,-166.85132)" fill="url(#radialGradient4306)"/>
   <path fill="url(#linearGradient4308)" d="m534.78,482.47c4.8267-0.12376,48.02-0.37129,48.02-0.37129l-0.49505,8.4158-4.3317,5.198,0.12376,20.668-6.8069,5.9406-10.891,1.6089-12.748-0.86634-8.7871-5.4456-0.49505-7.797,0.61881-14.728-2.7228-3.0941-1.8564-6.0644z"/>
   <path d="m583.17,480.77c0,6.4593-11.248,11.696-25.124,11.696-13.875,0-25.124-5.2363-25.124-11.696,0-6.4593,11.248-11.696,25.124-11.696,13.875,0,25.124,5.2363,25.124,11.696z" fill-rule="evenodd" transform="matrix(0.95425625,0,0,0.96040565,26.725537,19.637155)" fill="url(#radialGradient4310)"/>
   <path stroke-linejoin="miter" d="m535.27,480.95c0-6.6832,14.851-11.139,24.876-11.139s23.02,5.5693,23.02,10.644v9.2822s-1.2949,3.6717-4.4554,5.9406c0,7.4672,0.24753,20.173,0.24753,20.173s-2.3515,8.5396-20.05,8.5396-19.802-8.1683-19.802-8.1683v-21.04s-3.7129-3.3416-3.7129-5.8168-0.12376-8.4158-0.12376-8.4158z" stroke="#363636" stroke-linecap="butt" stroke-miterlimit="4" stroke-dasharray="none" stroke-width="2" fill="none"/>
   <path stroke-linejoin="miter" d="m538.86,495.06s7.9208,5.4455,20.421,5.4455,19.678-4.9505,19.678-4.9505" stroke="#363636" stroke-linecap="butt" stroke-miterlimit="4" stroke-dasharray="none" stroke-width="2" fill="none"/>
   <path stroke-linejoin="miter" d="m544.06,505.08c0.12376-2.3515,3.9604-1.8564,3.9604-0.37128,0,1.4852,0.12376,8.4158,0.12376,9.901,0,2.2277-3.9604,2.8465-4.0842,0.24752-0.12377-2.599,0-9.7772,0-9.7772z" stroke="#d9d9d9" stroke-linecap="butt" stroke-miterlimit="4" stroke-dasharray="none" stroke-width="0.5" fill="url(#linearGradient4312)"/>
   <path stroke-linejoin="miter" d="m552.23,507.44c0-3.4654,4.2079-2.4752,4.2079-0.37129,0,2.104,0.24753,6.7669,0.24753,11.015,0,2.58-4.3317,2.7228-4.4554,0.24753-0.12376-2.4752,0-10.891,0-10.891z" stroke="#cecece" stroke-linecap="butt" stroke-miterlimit="4" stroke-dasharray="none" stroke-width="0.5" fill="url(#linearGradient4314)"/>
   <path stroke-linejoin="miter" d="m561.01,518.2c-0.0359-3.3437-0.12376-7.9208-0.12376-10.767,0-2.8465,4.703-2.8465,4.703,0.12376s-0.12376,8.4158-0.12376,10.644c0,2.4753-4.4301,2.3602-4.4554,0.00001z" stroke="#b4b4b4" stroke-linecap="butt" stroke-miterlimit="4" stroke-dasharray="none" stroke-width="0.5" fill="url(#linearGradient4316)"/>
   <path stroke-linejoin="miter" d="m569.55,514.12c-0.10682-3.2256,0.12376-6.4356,0-8.9109-0.12377-2.4752,3.8366-2.104,3.8366-0.12377s0.12376,7.0545,0.12376,9.0347c0,1.7327-3.8662,2.8443-3.9604,0z" stroke="#AAA" stroke-linecap="butt" stroke-miterlimit="4" stroke-dasharray="none" stroke-width="0.5" fill="url(#linearGradient4318)"/>
   <path stroke-linejoin="miter" d="m549.13,482.07c0-2.104,0.24753-4.4554,0.24753-6.8069s5.9406-3.4653,9.5297-3.5891c3.5891-0.12376,11.262,1.1139,11.262,3.9604s-0.24753,5.0743-0.24753,6.5594-3.5891,0.74257-3.5891-0.24753,0.69888-1.6726-1.3614-3.2178c-1.4852-1.1139-2.7228-1.4852-4.703-1.4852s-4.2079,0.24752-6.0644,1.1139c-1.8564,0.86634-1.2376,3.0941-1.2376,3.7129,0,0.61881-3.2178,1.4852-3.8366,0z" stroke="#393939" stroke-linecap="butt" stroke-width="1px" fill="url(#radialGradient4320)"/>
  </g>
 </g>
</svg>
